<mxfile host="Electron" agent="Mozilla/5.0 (Windows NT 10.0; Win64; x64) AppleWebKit/537.36 (KHTML, like Gecko) draw.io/28.1.2 Chrome/138.0.7204.243 Electron/37.4.0 Safari/537.36" version="28.1.2">
  <diagram name="Page-1" id="j_0GlmsRJQnDnRv5wx1K">
    <mxGraphModel dx="692" dy="501" grid="1" gridSize="10" guides="1" tooltips="1" connect="1" arrows="1" fold="1" page="1" pageScale="1" pageWidth="850" pageHeight="1100" math="0" shadow="0">
      <root>
        <mxCell id="0" />
        <mxCell id="1" parent="0" />
        <mxCell id="mEVmFjVDVmEyJT9YKy9c-1" value="" style="rounded=0;whiteSpace=wrap;html=1;" vertex="1" parent="1">
          <mxGeometry x="10" y="10" width="360" height="60" as="geometry" />
        </mxCell>
        <mxCell id="mEVmFjVDVmEyJT9YKy9c-2" value="" style="rounded=0;whiteSpace=wrap;html=1;" vertex="1" parent="1">
          <mxGeometry x="100" y="20" width="240" height="40" as="geometry" />
        </mxCell>
        <mxCell id="mEVmFjVDVmEyJT9YKy9c-3" value="" style="whiteSpace=wrap;html=1;aspect=fixed;" vertex="1" parent="1">
          <mxGeometry x="20" y="15" width="50" height="50" as="geometry" />
        </mxCell>
        <mxCell id="mEVmFjVDVmEyJT9YKy9c-4" value="" style="rounded=0;whiteSpace=wrap;html=1;" vertex="1" parent="1">
          <mxGeometry x="10" y="70" width="360" height="200" as="geometry" />
        </mxCell>
        <mxCell id="mEVmFjVDVmEyJT9YKy9c-5" value="" style="ellipse;whiteSpace=wrap;html=1;aspect=fixed;" vertex="1" parent="1">
          <mxGeometry x="70" y="80" width="80" height="80" as="geometry" />
        </mxCell>
        <mxCell id="mEVmFjVDVmEyJT9YKy9c-7" value="" style="ellipse;whiteSpace=wrap;html=1;aspect=fixed;" vertex="1" parent="1">
          <mxGeometry x="220" y="80" width="80" height="80" as="geometry" />
        </mxCell>
        <mxCell id="mEVmFjVDVmEyJT9YKy9c-8" value="" style="ellipse;whiteSpace=wrap;html=1;aspect=fixed;" vertex="1" parent="1">
          <mxGeometry x="70" y="170" width="80" height="80" as="geometry" />
        </mxCell>
        <mxCell id="mEVmFjVDVmEyJT9YKy9c-9" value="" style="ellipse;whiteSpace=wrap;html=1;aspect=fixed;" vertex="1" parent="1">
          <mxGeometry x="220" y="170" width="80" height="80" as="geometry" />
        </mxCell>
        <mxCell id="mEVmFjVDVmEyJT9YKy9c-10" value="Title" style="text;strokeColor=none;fillColor=none;html=1;fontSize=24;fontStyle=1;verticalAlign=middle;align=center;" vertex="1" parent="1">
          <mxGeometry x="100" y="20" width="230" height="40" as="geometry" />
        </mxCell>
        <UserObject label="Home" placeholders="1" name="Variable" id="mEVmFjVDVmEyJT9YKy9c-11">
          <mxCell style="text;html=1;strokeColor=none;fillColor=none;align=center;verticalAlign=middle;whiteSpace=wrap;overflow=hidden;" vertex="1" parent="1">
            <mxGeometry x="70" y="110" width="80" height="20" as="geometry" />
          </mxCell>
        </UserObject>
        <UserObject label="About" placeholders="1" name="Variable" id="mEVmFjVDVmEyJT9YKy9c-12">
          <mxCell style="text;html=1;strokeColor=none;fillColor=none;align=center;verticalAlign=middle;whiteSpace=wrap;overflow=hidden;" vertex="1" parent="1">
            <mxGeometry x="220" y="110" width="80" height="20" as="geometry" />
          </mxCell>
        </UserObject>
        <UserObject label="Schedule" placeholders="1" name="Variable" id="mEVmFjVDVmEyJT9YKy9c-13">
          <mxCell style="text;html=1;strokeColor=none;fillColor=none;align=center;verticalAlign=middle;whiteSpace=wrap;overflow=hidden;" vertex="1" parent="1">
            <mxGeometry x="70" y="200" width="80" height="20" as="geometry" />
          </mxCell>
        </UserObject>
        <UserObject label="Memberships" placeholders="1" name="Variable" id="mEVmFjVDVmEyJT9YKy9c-14">
          <mxCell style="text;html=1;strokeColor=none;fillColor=none;align=center;verticalAlign=middle;whiteSpace=wrap;overflow=hidden;" vertex="1" parent="1">
            <mxGeometry x="220" y="200" width="80" height="20" as="geometry" />
          </mxCell>
        </UserObject>
        <mxCell id="mEVmFjVDVmEyJT9YKy9c-17" value="" style="rounded=0;whiteSpace=wrap;html=1;" vertex="1" parent="1">
          <mxGeometry x="10" y="270" width="360" height="140" as="geometry" />
        </mxCell>
        <UserObject label="Logo" placeholders="1" name="Variable" id="mEVmFjVDVmEyJT9YKy9c-18">
          <mxCell style="text;html=1;strokeColor=none;fillColor=none;align=center;verticalAlign=middle;whiteSpace=wrap;overflow=hidden;" vertex="1" parent="1">
            <mxGeometry x="10" y="30" width="80" height="20" as="geometry" />
          </mxCell>
        </UserObject>
        <mxCell id="mEVmFjVDVmEyJT9YKy9c-19" value="Image" style="text;strokeColor=none;fillColor=none;html=1;fontSize=24;fontStyle=1;verticalAlign=middle;align=center;" vertex="1" parent="1">
          <mxGeometry x="30" y="310" width="320" height="40" as="geometry" />
        </mxCell>
        <mxCell id="mEVmFjVDVmEyJT9YKy9c-20" value="" style="rounded=0;whiteSpace=wrap;html=1;" vertex="1" parent="1">
          <mxGeometry x="10" y="410" width="360" height="180" as="geometry" />
        </mxCell>
        <mxCell id="mEVmFjVDVmEyJT9YKy9c-21" value="Location and Map" style="text;strokeColor=none;fillColor=none;html=1;fontSize=24;fontStyle=1;verticalAlign=middle;align=center;" vertex="1" parent="1">
          <mxGeometry x="60" y="460" width="260" height="40" as="geometry" />
        </mxCell>
        <mxCell id="mEVmFjVDVmEyJT9YKy9c-22" value="" style="rounded=0;whiteSpace=wrap;html=1;" vertex="1" parent="1">
          <mxGeometry x="10" y="590" width="360" height="210" as="geometry" />
        </mxCell>
        <mxCell id="mEVmFjVDVmEyJT9YKy9c-23" value="Upcoming Events" style="text;strokeColor=none;fillColor=none;html=1;fontSize=24;fontStyle=1;verticalAlign=middle;align=center;" vertex="1" parent="1">
          <mxGeometry x="75" y="660" width="235" height="40" as="geometry" />
        </mxCell>
        <mxCell id="mEVmFjVDVmEyJT9YKy9c-24" value="" style="rounded=0;whiteSpace=wrap;html=1;" vertex="1" parent="1">
          <mxGeometry x="10" y="800" width="360" height="210" as="geometry" />
        </mxCell>
        <mxCell id="mEVmFjVDVmEyJT9YKy9c-25" value="Memberships" style="text;strokeColor=none;fillColor=none;html=1;fontSize=24;fontStyle=1;verticalAlign=middle;align=center;" vertex="1" parent="1">
          <mxGeometry x="75" y="880" width="225" height="40" as="geometry" />
        </mxCell>
        <mxCell id="mEVmFjVDVmEyJT9YKy9c-26" value="" style="rounded=0;whiteSpace=wrap;html=1;" vertex="1" parent="1">
          <mxGeometry x="10" y="1010" width="360" height="60" as="geometry" />
        </mxCell>
        <mxCell id="mEVmFjVDVmEyJT9YKy9c-27" value="Footer" style="text;strokeColor=none;fillColor=none;html=1;fontSize=24;fontStyle=1;verticalAlign=middle;align=center;" vertex="1" parent="1">
          <mxGeometry x="90" y="1020" width="180" height="40" as="geometry" />
        </mxCell>
      </root>
    </mxGraphModel>
  </diagram>
</mxfile>
